# xmcd
#
# Track frame offsets:
# 150
# 22013
# 40147
# 61977
# 78772
# 98145
# 114772
# 132829
# 145320
# 164652
# 171658
# 194235
# 205547
# 219849
# 238038
# 243761
#
# Disc length: 3443 seconds
#
#
# Revision: 8
# Processed by: cddbd v1.5.2PL0 Copyright (c) Steve Scherf et al.
# Submitted via: FreeRIP 2.945 
#
DISCID=dd0d7110
DTITLE=Ed Motta - Manual Prático Para Festas, Bailes e Afins
DYEAR=1997
DGENRE=Pop
TTITLE0=Daqui Pro Méier
TTITLE1=Vendaval
TTITLE2=Fora Da Lei
TTITLE3=Lustres e Pingentes
TTITLE4=Birinaite
TTITLE5=Por Você Ser Mais
TTITLE6=Como Dois Cristais
TTITLE7=A Flor Do Querer
TTITLE8=Dias De Paz
TTITLE9=A Loja Do Subsolo (Vinheta)
TTITLE10=Luna e Cera
TTITLE11=Mentiras Fáceis
TTITLE12=Falso Milagre Do Amor
TTITLE13=Quais Serão Meus Desejos?
TTITLE14=Cartão de Visita (Vinheta)
TTITLE15=Falso Milagre Do Amor (Versão Metais Em Brasa)
EXTD=Vol.1
EXTT0=
EXTT1=
EXTT2=
EXTT3=
EXTT4=
EXTT5=
EXTT6=
EXTT7=
EXTT8=
EXTT9=
EXTT10=
EXTT11=
EXTT12=
EXTT13=
EXTT14=
EXTT15=
PLAYORDER=
